<svg width="35" height="35" viewBox="0 0 35 35" fill="none" xmlns="http://www.w3.org/2000/svg">
<path d="M17.5 20.2708L20.2708 23.0417C20.5625 23.309 20.9091 23.4427 21.3106 23.4427C21.7112 23.4427 22.0451 23.309 22.3125 23.0417C22.6042 22.75 22.75 22.4034 22.75 22.0019C22.75 21.6013 22.6042 21.2674 22.3125 21L19.5417 18.2292L22.3125 15.4583C22.6042 15.1667 22.75 14.8201 22.75 14.4185C22.75 14.018 22.6042 13.684 22.3125 13.4167C22.0451 13.125 21.7112 12.9792 21.3106 12.9792C20.9091 12.9792 20.5625 13.125 20.2708 13.4167L17.5 16.1875L14.7292 13.4167C14.4618 13.125 14.1279 12.9792 13.7273 12.9792C13.3258 12.9792 12.9792 13.125 12.6875 13.4167C12.4201 13.684 12.2865 14.018 12.2865 14.4185C12.2865 14.8201 12.4201 15.1667 12.6875 15.4583L15.4583 18.2292L12.6875 21C12.4201 21.2674 12.2865 21.6013 12.2865 22.0019C12.2865 22.4034 12.4201 22.75 12.6875 23.0417C12.9792 23.309 13.3258 23.4427 13.7273 23.4427C14.1279 23.4427 14.4618 23.309 14.7292 23.0417L17.5 20.2708ZM10.2083 30.625C9.40626 30.625 8.71987 30.3397 8.14918 29.769C7.57751 29.1973 7.29168 28.5104 7.29168 27.7083V8.75C6.87848 8.75 6.53189 8.61049 6.25189 8.33146C5.97286 8.05146 5.83334 7.70486 5.83334 7.29167C5.83334 6.87847 5.97286 6.53188 6.25189 6.25188C6.53189 5.97285 6.87848 5.83333 7.29168 5.83333H13.125C13.125 5.42014 13.265 5.07354 13.545 4.79354C13.824 4.51451 14.1701 4.375 14.5833 4.375H20.4167C20.8299 4.375 21.1765 4.51451 21.4565 4.79354C21.7355 5.07354 21.875 5.42014 21.875 5.83333H27.7083C28.1215 5.83333 28.4676 5.97285 28.7467 6.25188C29.0267 6.53188 29.1667 6.87847 29.1667 7.29167C29.1667 7.70486 29.0267 8.05146 28.7467 8.33146C28.4676 8.61049 28.1215 8.75 27.7083 8.75V27.7083C27.7083 28.5104 27.423 29.1973 26.8523 29.769C26.2806 30.3397 25.5938 30.625 24.7917 30.625H10.2083Z" fill="#DC143C"/>
</svg>
